HIERARCHY
ROOT hip
{
  OFFSET 250.521 73.3653 -135.377
  CHANNELS 6 Xposition Yposition Zposition Zrotation Xrotation Yrotation
  JOINT abdomen
  {
    OFFSET 0 20.6881 -0.73152
    CHANNELS 3 Zrotation Xrotation Yrotation
    JOINT chest
    {
      OFFSET 0 11.7043 -0.48768
      CHANNELS 3 Zrotation Xrotation Yrotation
      JOINT neck
      {
        OFFSET 0 22.1894 -2.19456
        CHANNELS 3 Zrotation Xrotation Yrotation
        JOINT head
        {
          OFFSET -0.24384 7.07133 1.2192
          CHANNELS 3 Zrotation Xrotation Yrotation
          JOINT leftEye
          {
            OFFSET 4.14528 8.04674 8.04672
            CHANNELS 3 Zrotation Xrotation Yrotation
            End Site
            {
              OFFSET 1 0 0
            }
          }
          JOINT rightEye
          {
            OFFSET -3.6576 8.04674 8.04672
            CHANNELS 3 Zrotation Xrotation Yrotation
            End Site
            {
              OFFSET 1 0 0
            }
          }
        }
      }
      JOINT rCollar
      {
        OFFSET -2.68224 19.2634 -4.8768
        CHANNELS 3 Zrotation Xrotation Yrotation
        JOINT rShldr
        {
          OFFSET -8.77824 -1.95073 1.46304
          CHANNELS 3 Zrotation Xrotation Yrotation
          JOINT rForeArm
          {
            OFFSET -28.1742 -1.7115 0.48768
            CHANNELS 3 Zrotation Xrotation Yrotation
            JOINT rHand
            {
              OFFSET -22.5879 0.773209 7.07136
              CHANNELS 3 Zrotation Xrotation Yrotation
              JOINT rThumb1
              {
                OFFSET -1.2192 -0.487915 3.41376
                CHANNELS 3 Zrotation Xrotation Yrotation
                JOINT rThumb2
                {
                  OFFSET -3.37035 -0.52449 3.41376
                  CHANNELS 3 Zrotation Xrotation Yrotation
                  End Site
                  {
                    OFFSET -1.78271 -1.18214 1.43049
                  }
                }
              }
              JOINT rIndex1
              {
                OFFSET -7.75947 0.938293 5.60832
                CHANNELS 3 Zrotation Xrotation Yrotation
                JOINT rIndex2
                {
                  OFFSET -2.54057 -0.884171 1.56538
                  CHANNELS 3 Zrotation Xrotation Yrotation
                  End Site
                  {
                    OFFSET -1.62519 -0.234802 1.16502
                  }
                }
              }
              JOINT rMid1
              {
                OFFSET -8.24714 1.18213 3.41376
                CHANNELS 3 Zrotation Xrotation Yrotation
                JOINT rMid2
                {
                  OFFSET -3.10165 -0.590103 1.0647
                  CHANNELS 3 Zrotation Xrotation Yrotation
                  End Site
                  {
                    OFFSET -2.48547 -0.328903 0.83742
                  }
                }
              }
              JOINT rRing1
              {
                OFFSET -8.82822 0.546677 1.51678
                CHANNELS 3 Zrotation Xrotation Yrotation
                JOINT rRing2
                {
                  OFFSET -2.60934 -0.819778 -0.0198488
                  CHANNELS 3 Zrotation Xrotation Yrotation
                  End Site
                  {
                    OFFSET -2.33842 -0.294052 0.168128
                  }
                }
              }
              JOINT rPinky1
              {
                OFFSET -8.27202 -0.0477905 -0.4584
                CHANNELS 3 Zrotation Xrotation Yrotation
                JOINT rPinky2
                {
                  OFFSET -1.82734 -0.647385 -0.700984
                  CHANNELS 3 Zrotation Xrotation Yrotation
                  End Site
                  {
                    OFFSET -1.69225 -0.51767 -0.607171
                  }
                }
              }
            }
          }
        }
      }
      JOINT lCollar
      {
        OFFSET 2.68224 19.2634 -4.8768
        CHANNELS 3 Zrotation Xrotation Yrotation
        JOINT lShldr
        {
          OFFSET 8.77824 -1.95073 1.46304
          CHANNELS 3 Zrotation Xrotation Yrotation
          JOINT lForeArm
          {
            OFFSET 28.1742 -1.7115 0.48768
            CHANNELS 3 Zrotation Xrotation Yrotation
            JOINT lHand
            {
              OFFSET 22.5879 0.773209 7.07136
              CHANNELS 3 Zrotation Xrotation Yrotation
              JOINT lThumb1
              {
                OFFSET 1.2192 -0.487915 3.41376
                CHANNELS 3 Zrotation Xrotation Yrotation
                JOINT lThumb2
                {
                  OFFSET 3.37035 -0.52449 3.41376
                  CHANNELS 3 Zrotation Xrotation Yrotation
                  End Site
                  {
                    OFFSET 1.78271 -1.18214 1.43049
                  }
                }
              }
              JOINT lIndex1
              {
                OFFSET 7.75947 0.938293 5.60832
                CHANNELS 3 Zrotation Xrotation Yrotation
                JOINT lIndex2
                {
                  OFFSET 2.54057 -0.884171 1.56538
                  CHANNELS 3 Zrotation Xrotation Yrotation
                  End Site
                  {
                    OFFSET 1.62519 -0.234802 1.16502
                  }
                }
              }
              JOINT lMid1
              {
                OFFSET 8.24714 1.18213 3.41376
                CHANNELS 3 Zrotation Xrotation Yrotation
                JOINT lMid2
                {
                  OFFSET 3.10165 -0.590103 1.0647
                  CHANNELS 3 Zrotation Xrotation Yrotation
                  End Site
                  {
                    OFFSET 2.48547 -0.328903 0.83742
                  }
                }
              }
              JOINT lRing1
              {
                OFFSET 8.82822 0.546677 1.51678
                CHANNELS 3 Zrotation Xrotation Yrotation
                JOINT lRing2
                {
                  OFFSET 2.60934 -0.819778 -0.0198488
                  CHANNELS 3 Zrotation Xrotation Yrotation
                  End Site
                  {
                    OFFSET 2.33842 -0.294052 0.168128
                  }
                }
              }
              JOINT lPinky1
              {
                OFFSET 8.27202 -0.0477905 -0.4584
                CHANNELS 3 Zrotation Xrotation Yrotation
                JOINT lPinky2
                {
                  OFFSET 1.82734 -0.647385 -0.700984
                  CHANNELS 3 Zrotation Xrotation Yrotation
                  End Site
                  {
                    OFFSET 1.69225 -0.51767 -0.607171
                  }
                }
              }
            }
          }
        }
      }
    }
  }
  JOINT rButtock
  {
    OFFSET -8.77824 4.35084 1.2192
    CHANNELS 3 Zrotation Xrotation Yrotation
    JOINT rThigh
    {
      OFFSET 0 -1.70687 -2.19456
      CHANNELS 3 Zrotation Xrotation Yrotation
      JOINT rShin
      {
        OFFSET 0 -36.8199 0.73152
        CHANNELS 3 Zrotation Xrotation Yrotation
        JOINT rFoot
        {
          OFFSET 0.73152 -45.1104 -5.12064
          CHANNELS 3 Zrotation Xrotation Yrotation
          End Site
          {
            OFFSET -1.1221 -3.69964 12.103
          }
        }
      }
    }
  }
  JOINT lButtock
  {
    OFFSET 8.77824 4.35084 1.2192
    CHANNELS 3 Zrotation Xrotation Yrotation
    JOINT lThigh
    {
      OFFSET 0 -1.70687 -2.19456
      CHANNELS 3 Zrotation Xrotation Yrotation
      JOINT lShin
      {
        OFFSET 0 -36.8199 0.73152
        CHANNELS 3 Zrotation Xrotation Yrotation
        JOINT lFoot
        {
          OFFSET -0.73152 -45.1104 -5.12064
          CHANNELS 3 Zrotation Xrotation Yrotation
          End Site
          {
            OFFSET 1.1221 -3.69964 12.103
          }
        }
      }
    }
  }
}
MOTION
Frames:	9
Frame Time:	0.00833333
-230.754 68.5608 17.3019 2.38041 0.011136 -0.0455966 -3.13114 0.00208554 -0.0845014 -0.863213 0.0181964 -0.149329 -1.25645e-014 -7.95139e-016 4.47266e-016 -3.72069e-014 3.18055e-015 1.53748e-015 -0 0 0 -0 0 0 -5.86458e-015 1.89855e-016 4.96962e-016 -1.26962e-013 4.08751e-015 5.56597e-015 -2.18335e-012 8.01699e-013 1.11319e-013 -2.52849e-011 6.72141e-014 9.79611e-013 -5.95822e-011 1.88493e-012 2.37905e-012 -1.02898e-010 3.25371e-012 4.12438e-012 -5.95774e-011 1.88527e-012 2.37905e-012 7.73091 5.47488 0.417314 -5.95818e-011 1.88527e-012 2.3886e-012 2.90554 0.965183 0.102902 -5.95696e-011 1.88537e-012 2.3886e-012 10.2786 0.731801 0.0259123 -5.95883e-011 1.88488e-012 2.4045e-012 2.22167 -0.733487 -0.20892 -5.96353e-015 1.9529e-016 9.93923e-017 -1.29551e-013 3.84524e-015 3.97569e-015 -2.23777e-012 -5.1366e-013 1.24042e-013 -2.52361e-011 1.37793e-012 9.82791e-013 -5.9588e-011 1.87526e-012 2.39496e-012 -1.029e-010 3.24099e-012 4.14665e-012 -5.95913e-011 1.87653e-012 2.4045e-012 -7.73091 5.47488 -0.417314 -5.95877e-011 1.87504e-012 2.39178e-012 -2.90554 0.965183 -0.102902 -5.95943e-011 1.87573e-012 2.39575e-012 -10.2786 0.731801 -0.0259123 -5.95819e-011 1.87692e-012 2.38224e-012 -2.22167 -0.733487 0.20892 -2.03217e-016 0 -3.88251e-019 -1.91957 -1.93503 0.0146376 -0.00849489 -2.07867 -0.0697104 -0.45783 4.00011 0.132335 2.03217e-016 0 3.88251e-019 -2.83902 -9.32617 0.322419 -0.00901988 11.3077 -0.235033 0.528191 -1.99503 -0.0184433 
-225.364 66.2328 11.2352 7.14193 7.44324 23.4218 -5.48216 9.47003 2.94796 -0.376499 -0.337571 0.628115 -2.31444 2.67476 -2.37169 8.47492 -15.1515 -0.067132 -0 0 0 -0 0 0 -8.204e-015 1.73067e-013 1.55071e-014 20.7296 -0.30145 4.66986 -10.6305 -7.50095 12.7189 0.00286424 1.19627 0.167997 6.23515e-010 7.6403e-010 -2.87998e-010 1.07709e-009 1.32154e-009 -4.99623e-010 6.23519e-010 7.64032e-010 -2.88004e-010 7.73091 5.47488 0.417314 6.23515e-010 7.6403e-010 -2.87992e-010 2.90554 0.965183 0.102902 6.23526e-010 7.64031e-010 -2.87991e-010 10.2786 0.731801 0.0259123 6.23508e-010 7.64032e-010 -2.87975e-010 2.22167 -0.733487 -0.20892 -8.26695e-015 1.73071e-013 1.51527e-014 -19.7436 9.98279 -0.902446 8.77639 -5.65241 -11.4358 -0.0814696 -6.34129 0.871647 1.81538e-010 4.40414e-010 4.16272e-010 3.03679e-010 7.63652e-010 7.23281e-010 1.81533e-010 4.40414e-010 4.16287e-010 -7.73091 5.47488 -0.417314 1.81537e-010 4.40412e-010 4.1627e-010 -2.90554 0.965183 -0.102902 1.8153e-010 4.40413e-010 4.16273e-010 -10.2786 0.731801 -0.0259123 1.81542e-010 4.40414e-010 4.16261e-010 -2.22167 -0.733487 0.20892 -2.03217e-016 0 -3.88251e-019 -3.56027 -11.6562 -4.10247 0.0194014 22.6205 0.254708 -0.486929 0.856845 -1.24607 2.03217e-016 0 3.88251e-019 1.15065 -18.4145 3.59403 0.120616 27.3109 -0.438996 0.145164 -4.45936 -1.59755 
-223.451 66.5671 11.2669 6.28167 11.0869 49.0178 -9.10063 19.3971 6.48331 0.120583 -0.704937 1.46366 -4.5197 5.50535 -4.92977 17.4244 -31.2067 -0.19921 -0 0 0 -0 0 0 -9.63433e-015 3.57281e-013 3.15788e-014 42.7138 -0.609565 9.65573 -18.2023 -14.0843 26.7536 -0.00174907 2.44388 0.343453 1.4397e-009 1.70629e-009 -6.45222e-010 2.48689e-009 2.9514e-009 -1.11939e-009 1.4397e-009 1.70629e-009 -6.45235e-010 7.73091 5.47488 0.417314 1.4397e-009 1.70629e-009 -6.4522e-010 2.90554 0.965183 0.102902 1.43971e-009 1.70629e-009 -6.45218e-010 10.2786 0.731801 0.0259123 1.43969e-009 1.70629e-009 -6.45202e-010 2.22167 -0.733487 -0.20892 -9.65463e-015 3.57281e-013 3.12713e-014 -40.3283 20.4799 -1.96718 15.5744 -10.8034 -23.8044 0.0474328 -13.0616 1.83235 4.50704e-010 9.48499e-010 9.28586e-010 7.56597e-010 1.64459e-009 1.61298e-009 4.50697e-010 9.48499e-010 9.28607e-010 -7.73091 5.47488 -0.417314 4.50702e-010 9.48496e-010 9.28584e-010 -2.90554 0.965183 -0.102902 4.50694e-010 9.48496e-010 9.28587e-010 -10.2786 0.731801 -0.0259123 4.50707e-010 9.48497e-010 9.28575e-010 -2.22167 -0.733487 0.20892 -2.03217e-016 0 -3.88251e-019 -6.91759 -21.6766 -8.92513 -0.390185 48.8006 0.847232 -0.678612 -2.44569 -2.6961 2.03217e-016 0 3.88251e-019 6.62212 -27.9344 7.54564 0.440664 44.1675 -0.776313 -0.419428 -7.17123 -3.29298 
-221.525 67.0139 11.2878 3.35787 8.19237 71.3949 -13.514 28.0705 10.0894 0.625889 -1.04841 2.18334 -6.27542 7.96903 -7.17698 25.2799 -45.454 -0.277122 -0 0 0 -0 0 0 -1.28829e-014 5.18823e-013 4.55275e-014 62.3347 -0.88037 14.0111 -22.3214 -18.0245 40.1581 -0.0124877 3.5887 0.50487 1.98971e-009 2.28832e-009 -8.68752e-010 3.43707e-009 3.95812e-009 -1.50712e-009 1.98971e-009 2.28833e-009 -8.68771e-010 7.73091 5.47488 0.417314 1.98971e-009 2.28832e-009 -8.68753e-010 2.90554 0.965183 0.102902 1.98972e-009 2.28832e-009 -8.6875e-010 10.2786 0.731801 0.0259123 1.9897e-009 2.28833e-009 -8.68733e-010 2.22167 -0.733487 -0.20892 -1.28738e-014 5.18822e-013 4.52592e-014 -58.1645 29.9163 -3.07661 19.8396 -14.2475 -35.3803 0.362576 -19.0057 2.7489 6.63789e-010 1.31749e-009 1.24403e-009 1.11684e-009 2.28448e-009 2.16155e-009 6.63781e-010 1.31749e-009 1.24405e-009 -7.73091 5.47488 -0.417314 6.63787e-010 1.31749e-009 1.24403e-009 -2.90554 0.965183 -0.102902 6.63779e-010 1.31749e-009 1.24403e-009 -10.2786 0.731801 -0.0259123 6.63791e-010 1.31749e-009 1.24402e-009 -2.22167 -0.733487 0.20892 -2.03217e-016 0 -3.88251e-019 -11.5708 -30.4208 -14.0481 -2.23673 72.0004 2.73441 -0.999519 -5.41582 -4.01978 2.03217e-016 0 3.88251e-019 12.9033 -36.0975 11.9024 1.063 59.3118 -1.38977 -1.03283 -9.36078 -4.80541 
-219.619 67.5402 11.3698 2.01887 2.47478 85.6605 -17.3711 33.9513 12.8139 1.13153 -1.33284 2.61306 -7.40213 9.57239 -8.58421 30.693 -55.1823 -0.0253319 -0 0 0 -0 0 0 -2.06769e-014 6.23687e-013 5.41688e-014 75.9458 -1.08119 16.7887 -24.1745 -19.4266 50.1661 -0.0246416 4.47661 0.630443 1.8743e-009 1.96978e-009 -7.58044e-010 3.2382e-009 3.40701e-009 -1.31476e-009 1.8743e-009 1.96978e-009 -7.58066e-010 7.73091 5.47488 0.417314 1.8743e-009 1.96978e-009 -7.58047e-010 2.90554 0.965183 0.102902 1.87431e-009 1.96978e-009 -7.58044e-010 10.2786 0.731801 0.0259123 1.87429e-009 1.96978e-009 -7.58028e-010 2.22167 -0.733487 -0.20892 -2.06717e-014 6.23687e-013 5.39203e-014 -69.9352 36.7332 -3.94868 22.0785 -15.8756 -44.0021 0.697797 -23.0274 3.42462 7.36674e-010 1.33875e-009 1.06729e-009 1.24538e-009 2.32173e-009 1.8573e-009 7.36665e-010 1.33875e-009 1.06731e-009 -7.73091 5.47488 -0.417314 7.36671e-010 1.33874e-009 1.06729e-009 -2.90554 0.965183 -0.102902 7.36663e-010 1.33874e-009 1.06729e-009 -10.2786 0.731801 -0.0259123 7.36675e-010 1.33874e-009 1.06728e-009 -2.22167 -0.733487 0.20892 -2.03217e-016 0 -3.88251e-019 -16.031 -36.5978 -18.3991 -25.033 87.5825 25.5005 -1.33171 -7.56931 -5.00483 2.03217e-016 0 3.88251e-019 18.3217 -41.3079 15.6889 2.09599 70.1785 -2.43555 -1.44068 -10.2725 -5.80774 
-217.728 68.0043 11.4884 1.85762 -0.504341 90.794 -19.1065 36.2002 13.4871 1.61923 -1.52856 2.64231 -7.83406 9.95231 -8.79306 32.7963 -58.5774 0.774324 -0 0 0 -0 0 0 -3.91125e-014 6.94359e-013 5.93889e-014 81.1359 -1.202 17.3622 -24.9846 -20.0763 55.0528 -0.0345369 5.13154 0.723265 5.50113e-010 -7.30794e-011 -3.22314e-012 9.52128e-010 -1.26879e-010 -4.59777e-012 5.50113e-010 -7.30738e-011 -3.2451e-012 7.73091 5.47488 0.417314 5.50111e-010 -7.3081e-011 -3.22689e-012 2.90554 0.965183 0.102902 5.50119e-010 -7.30789e-011 -3.22403e-012 10.2786 0.731801 0.0259123 5.50107e-010 -7.30755e-011 -3.21013e-012 2.22167 -0.733487 -0.20892 -3.91737e-014 6.94364e-013 5.91272e-014 -73.5259 39.8888 -4.3089 23.029 -16.6143 -48.1521 0.828959 -24.2166 3.63858 5.90226e-010 7.58776e-010 -3.21898e-011 1.01438e-009 1.31716e-009 -4.49922e-011 5.90218e-010 7.58775e-010 -3.21631e-011 -7.73091 5.47488 -0.417314 5.90224e-010 7.58772e-010 -3.2188e-011 -2.90554 0.965183 -0.102902 5.90216e-010 7.58772e-010 -3.2186e-011 -10.2786 0.731801 -0.0259123 5.90228e-010 7.58772e-010 -3.21921e-011 -2.22167 -0.733487 0.20892 -2.03217e-016 0 -3.88251e-019 -18.3173 -39.8012 -20.5246 -161.081 86.4938 161.535 -1.5355 -8.71461 -5.43033 2.03217e-016 0 3.88251e-019 20.7523 -42.7479 17.4429 3.05621 75.1086 -3.47959 -1.44291 -9.3124 -6.20329 
-215.833 68.3753 11.6253 1.79677 -0.111984 90.1716 -18.9781 35.9189 12.4419 2.09143 -1.66137 2.38514 -7.80288 9.46722 -8.13722 32.3907 -57.4422 1.84773 -0 0 0 -0 0 0 -6.49454e-014 7.38456e-013 6.19742e-014 80.2973 -1.27007 16.3608 -25.3821 -21.0386 56.3353 -0.041672 5.61402 0.79174 -1.62429e-009 -3.32552e-009 1.20329e-009 -2.80202e-009 -5.75315e-009 2.08945e-009 -1.62429e-009 -3.32551e-009 1.20327e-009 7.73091 5.47488 0.417314 -1.62429e-009 -3.32552e-009 1.20329e-009 2.90554 0.965183 0.102902 -1.62429e-009 -3.32552e-009 1.20329e-009 10.2786 0.731801 0.0259123 -1.62429e-009 -3.32551e-009 1.2033e-009 2.22167 -0.733487 -0.20892 -6.51169e-014 7.38471e-013 6.1676e-014 -71.4225 40.4379 -4.18879 23.3701 -17.2561 -49.0782 0.765275 -23.3936 3.49768 2.88211e-010 -2.45198e-010 -1.77963e-009 5.28232e-010 -4.22136e-010 -3.06949e-009 2.88204e-010 -2.45199e-010 -1.77961e-009 -7.73091 5.47488 -0.417314 2.88209e-010 -2.452e-010 -1.77963e-009 -2.90554 0.965183 -0.102902 2.88202e-010 -2.452e-010 -1.77963e-009 -10.2786 0.731801 -0.0259123 2.88213e-010 -2.45201e-010 -1.77963e-009 -2.22167 -0.733487 0.20892 -2.03217e-016 0 -3.88251e-019 -18.4347 -41.059 -20.6131 -143.176 88.1626 143.655 -1.60997 -9.13803 -5.45128 2.03217e-016 0 3.88251e-019 20.57 -41.6156 17.3821 3.21509 75.8027 -3.78265 -1.14064 -7.0231 -6.16366 
-213.907 69.0103 11.8503 1.81135 1.69494 87.3392 -18.055 34.5854 10.6787 2.57039 -1.77956 2.00426 -7.61138 8.72188 -7.10894 30.892 -54.491 2.9784 -0 0 0 -0 0 0 -8.68928e-014 6.99675e-013 5.70912e-014 76.9853 -1.31387 14.7204 -25.6281 -22.1865 56.0216 -0.0438976 5.825 0.821659 -3.69527e-009 -6.32017e-009 2.30859e-009 -6.37773e-009 -1.09335e-008 4.00793e-009 -3.69527e-009 -6.32016e-009 2.30857e-009 7.73091 5.47488 0.417314 -3.69528e-009 -6.32017e-009 2.30859e-009 2.90554 0.965183 0.102902 -3.69527e-009 -6.32017e-009 2.30859e-009 10.2786 0.731801 0.0259123 -3.69527e-009 -6.32017e-009 2.3086e-009 2.22167 -0.733487 -0.20892 -8.71665e-014 6.99698e-013 5.67565e-014 -67.323 39.9763 -3.66069 23.5226 -17.9659 -48.69 0.649875 -22.0112 3.2615 -3.91504e-011 -1.23573e-009 -3.41238e-009 -3.69044e-012 -2.1383e-009 -5.89635e-009 -3.91559e-011 -1.23573e-009 -3.41236e-009 -7.73091 5.47488 -0.417314 -3.91523e-011 -1.23573e-009 -3.41237e-009 -2.90554 0.965183 -0.102902 -3.91574e-011 -1.23573e-009 -3.41237e-009 -10.2786 0.731801 -0.0259123 -3.91484e-011 -1.23573e-009 -3.41237e-009 -2.22167 -0.733487 0.20892 -2.03217e-016 0 -3.88251e-019 -17.5187 -41.3844 -19.6989 -16.0852 86.3903 16.6013 -1.63399 -9.07559 -5.41078 2.03217e-016 0 3.88251e-019 19.4353 -39.4464 16.6456 2.85357 74.7299 -3.58436 -0.726473 -4.35836 -5.74924 
-211.973 69.5468 12.1754 1.90004 2.63849 85.6455 -17.3151 33.714 9.14824 3.07919 -1.93143 1.6624 -7.59959 8.32921 -6.19196 30.0569 -52.4372 4.237 -0 0 0 -0 0 0 -9.36714e-014 5.21708e-013 3.9906e-014 74.7584 -1.36202 13.3774 -25.8297 -23.0056 56.0712 -0.0395285 5.66544 0.798856 -4.7092e-009 -7.58968e-009 2.75977e-009 -8.1285e-009 -1.31294e-008 4.7914e-009 -4.7092e-009 -7.58967e-009 2.75976e-009 7.73091 5.47488 0.417314 -4.7092e-009 -7.58967e-009 2.75977e-009 2.90554 0.965183 0.102902 -4.7092e-009 -7.58967e-009 2.75977e-009 10.2786 0.731801 0.0259123 -4.7092e-009 -7.58968e-009 2.75978e-009 2.22167 -0.733487 -0.20892 -9.39876e-014 5.21735e-013 3.95581e-014 -64.9107 40.0962 -2.81379 23.7767 -18.6859 -48.9107 0.604099 -21.5241 3.17746 -2.61636e-010 -1.77538e-009 -4.16774e-009 -3.72012e-010 -3.07347e-009 -7.20571e-009 -2.6164e-010 -1.77538e-009 -4.16773e-009 -7.73091 5.47488 -0.417314 -2.61637e-010 -1.77538e-009 -4.16774e-009 -2.90554 0.965183 -0.102902 -2.61642e-010 -1.77538e-009 -4.16774e-009 -10.2786 0.731801 -0.0259123 -2.61634e-010 -1.77538e-009 -4.16774e-009 -2.22167 -0.733487 0.20892 -2.03217e-016 0 -3.88251e-019 -16.9257 -41.7425 -18.9987 -7.26717 82.7009 7.80839 -1.69669 -8.76212 -5.65497 2.03217e-016 0 3.88251e-019 18.9637 -37.7688 16.3159 2.69532 74.3546 -3.56287 -0.385955 -2.27218 -5.00127 
